<?xml version="1.0" encoding="UTF-8"?>
<svg version="1.1" xmlns="http://www.w3.org/2000/svg" width="512" height="512">
<path d="M0 0 C168.96 0 337.92 0 512 0 C512 168.96 512 337.92 512 512 C343.04 512 174.08 512 0 512 C0 343.04 0 174.08 0 0 Z " fill="#000000" transform="translate(0,0)"/>
<path d="M0 0 C0.81981619 0.00037972 1.63963239 0.00075944 2.48429149 0.00115067 C3.89805328 -0.00183591 3.89805328 -0.00183591 5.3403759 -0.00488281 C6.9118407 -0.00051355 6.9118407 -0.00051355 8.51505226 0.00394398 C9.61846582 0.00308955 10.72187938 0.00223513 11.85872972 0.00135481 C15.58691431 -0.00030323 19.31505474 0.00522667 23.04323524 0.01067311 C25.70344848 0.01095493 28.36365894 0.01084145 31.02387184 0.0102306 C36.76698023 0.00970517 42.51007729 0.01285391 48.25318283 0.01846844 C56.55684175 0.02658093 64.86049517 0.0291984 73.16415762 0.03045643 C86.63492098 0.03264735 100.10567829 0.0393085 113.57643837 0.04875904 C126.66530525 0.05793214 139.75417049 0.06501347 152.84303993 0.06926686 C153.64926601 0.06952958 154.45549209 0.0697923 155.28614927 0.07006299 C159.33057786 0.07136798 163.37500647 0.0726317 167.41943508 0.07387489 C200.99447897 0.08424874 234.56951555 0.10186813 268.1445536 0.1241985 C267.48135053 3.56300194 266.65828101 6.77940469 265.50783485 10.08904225 C265.01718544 11.52026417 265.01718544 11.52026417 264.51662391 12.98039967 C264.16696571 13.99722828 263.81730751 15.01405689 263.4570536 16.0616985 C260.39377145 25.09260107 257.63684152 34.15015863 255.2238993 43.37590748 C254.01069916 48.00751189 252.69284502 52.57225561 251.2304911 57.132011 C248.6549566 65.41303602 246.85609338 73.84359635 245.0195536 82.3116985 C244.66976791 83.90229776 244.31950964 85.49279317 243.96877235 87.08318287 C242.28435863 94.7505402 240.68443142 102.42480943 239.1445536 110.1241985 C231.5545536 110.1241985 223.9645536 110.1241985 216.1445536 110.1241985 C217.1445536 100.1241985 217.1445536 100.1241985 217.67970985 96.29216725 C219.13252146 85.73953289 219.38522797 75.19462094 219.44310707 64.55794483 C219.45232447 62.90815041 219.46633798 61.25837505 219.48540443 59.60866505 C219.62628043 45.81451369 218.64665262 34.09473272 208.72658485 23.62810475 C200.35492024 16.71986736 186.57957955 14.01773086 176.05422157 13.97893482 C174.281101 13.96936505 174.281101 13.96936505 172.4721598 13.95960194 C170.57362755 13.9579327 170.57362755 13.9579327 168.6367411 13.95622975 C167.31973213 13.95290135 166.00272316 13.94957295 164.64580482 13.94614369 C161.86022317 13.94017082 159.07467245 13.93830172 156.28908485 13.93889576 C152.75247107 13.9389969 149.21606024 13.92538696 145.67949432 13.90812355 C142.93050458 13.89689617 140.1815621 13.89497987 137.4325518 13.89550549 C135.50522819 13.89377987 133.57791932 13.88300302 131.6506266 13.87195545 C120.18462777 13.90132833 108.967969 13.96869103 100.1445536 22.1241985 C89.55208203 34.11932612 86.88399891 52.14808721 83.1445536 67.1866985 C82.55846403 69.51832652 81.97169039 71.84978268 81.3842997 74.18108326 C79.87934085 80.16366717 78.3828562 86.14832092 76.88962692 92.13383919 C75.41042133 98.06209284 73.92711004 103.98931206 72.44240516 109.91619068 C72.2078751 110.85246202 71.97334503 111.78873335 71.73170799 112.75337654 C71.25010489 114.67598839 70.76850062 116.59859994 70.28689522 118.52121121 C64.89399506 140.05251633 59.51587494 161.58750121 54.1445536 183.1241985 C59.10702109 183.02993805 64.06904177 182.92369228 69.03102821 182.80681568 C70.71552897 182.76876973 72.40010425 182.73387651 74.08473915 182.7023235 C76.52031104 182.65613784 78.95538052 182.59823856 81.39064735 182.538261 C82.13165184 182.52670979 82.87265632 182.51515858 83.63611549 182.50325733 C98.83259915 182.08392233 110.46054583 176.10234791 121.0820536 165.3741985 C132.34949667 152.07638449 138.17545796 134.27371279 144.27175087 118.23113209 C145.1445536 116.1241985 145.1445536 116.1241985 146.1445536 115.1241985 C147.85227718 115.03706018 149.56354009 115.01719842 151.27345985 115.02654225 C152.82516884 115.03137623 152.82516884 115.03137623 154.40822548 115.03630787 C155.49683876 115.04468678 156.58545204 115.05306568 157.7070536 115.0616985 C159.3457743 115.06846607 159.3457743 115.06846607 161.01760048 115.07537037 C163.72663855 115.08720023 166.43556959 115.10368306 169.1445536 115.1241985 C168.06414943 119.02085014 166.98011515 122.91648056 165.8945536 126.8116985 C165.41030922 128.55108692 165.41030922 128.55108692 164.91628212 130.32561451 C164.59586952 131.47086598 164.27545692 132.61611744 163.94533485 133.7960735 C163.65054237 134.85149342 163.35574989 135.90691334 163.0520243 136.99431568 C162.12126395 140.20452492 161.11439308 143.3828467 160.0820536 146.5616985 C157.80814841 153.78809211 156.23677562 161.18255155 154.56838173 168.56658131 C152.69185843 176.8471498 150.67153752 185.08251222 148.5820536 193.3116985 C142.84112525 216.08373596 138.38349369 239.03581349 134.1445536 262.1241985 C126.5545536 262.1241985 118.9645536 262.1241985 111.1445536 262.1241985 C111.2889286 260.12099537 111.4333036 258.11779225 111.5820536 256.053886 C111.72139985 254.06123458 111.86070809 252.06858034 111.99904579 250.07585865 C112.14053321 248.05657677 112.28700198 246.03764586 112.4336161 244.01872975 C114.65070016 222.29570808 114.65070016 222.29570808 106.79689735 202.65935475 C99.48532652 195.86633503 90.59056151 194.96748741 81.12502235 195.02654225 C79.83716583 195.02866467 79.83716583 195.02866467 78.52329201 195.03082997 C75.79284311 195.03640792 73.06247753 195.04895636 70.3320536 195.0616985 C68.475935 195.06671635 66.6198151 195.07127875 64.76369423 195.07537037 C60.2239488 195.08637014 55.68426531 195.10361957 51.1445536 195.1241985 C49.96928842 199.77422899 48.79769864 204.42516793 47.6289286 209.07683522 C47.23433102 210.64542385 46.83887845 212.21379775 46.44240516 213.78191334 C43.9619137 223.59575523 41.60494762 233.4296593 39.35939735 243.29997975 C35.95650131 258.20687774 32.17046168 273.0122959 28.37386268 287.82244068 C26.92599945 293.47232043 25.4828093 299.12339371 24.04071182 304.77474743 C23.54289194 306.72324984 23.04317016 308.67126602 22.54340309 310.61926991 C22.24251274 311.79627964 21.94162239 312.97328938 21.63161415 314.18596607 C21.36769371 315.21562992 21.10377327 316.24529377 20.83185524 317.30615956 C19.40323131 323.16373017 18.90146546 328.5506315 18.8320536 334.5616985 C18.8030497 335.3950774 18.77404579 336.22845631 18.74416298 337.08708912 C18.68768147 342.58317442 19.34545423 345.85267227 23.1445536 350.1241985 C33.9254729 357.07711022 49.70599868 356.73886181 62.1445536 358.1241985 C62.00405843 359.60388174 61.85700534 361.08294366 61.7070536 362.5616985 C61.62584266 363.38540943 61.54463173 364.20912037 61.46095985 365.05779225 C61.1445536 367.1241985 61.1445536 367.1241985 60.1445536 368.1241985 C58.15760509 368.22090649 56.16716347 368.24606902 54.17786354 368.24445301 C52.23213196 368.24651501 52.23213196 368.24651501 50.24709266 368.24861866 C48.7961647 368.24507904 47.34523697 368.24144423 45.89430946 368.23772389 C44.37693989 368.23744202 42.85957019 368.23759973 41.3422007 368.23816639 C37.21014845 368.23845441 33.07812497 368.23255708 28.94607943 368.22559243 C24.63256468 368.21935952 20.31904934 368.21875515 16.00553077 368.21756703 C7.83155243 368.21445353 -0.34241261 368.20623989 -8.51638508 368.19621754 C-17.81973609 368.18505698 -27.12308772 368.1795461 -36.42644376 368.1745221 C-55.56945219 368.16405729 -74.71244823 368.14645749 -93.8554464 368.1241985 C-93.1954464 364.8241985 -92.5354464 361.5241985 -91.8554464 358.1241985 C-89.59120812 357.88636647 -89.59120812 357.88636647 -87.28122765 357.64372975 C-68.09725103 356.07937048 -68.09725103 356.07937048 -51.9179464 346.6866985 C-43.78936658 336.01667685 -40.67301116 321.74809813 -37.50559288 308.93596607 C-37.28982661 308.07160939 -37.07406033 307.2072527 -36.85175568 306.31670338 C-36.14116059 303.46791951 -35.43387861 300.61832379 -34.72654015 297.76872975 C-34.22018371 295.73666196 -33.71358114 293.7046555 -33.2067495 291.67270619 C-32.12852324 287.34849147 -31.05160509 283.0239541 -29.97574669 278.69914967 C-27.13045539 267.2625121 -24.27605604 255.82814577 -21.42185265 244.39372975 C-21.1368943 243.25185326 -20.85193596 242.10997677 -20.55834252 240.93349797 C-16.00479334 222.68887715 -11.41188408 204.45469166 -6.77518517 186.23104054 C-0.06829294 159.870713 6.60351078 133.50141039 13.22762245 107.12015873 C14.52223727 101.96433244 15.81870908 96.80899373 17.12044472 91.65496022 C18.34224403 86.81695961 19.55815128 81.97751399 20.76981872 77.13696629 C21.21631679 75.35725285 21.66480069 73.57803612 22.11552566 71.79938847 C24.28836678 63.21950074 26.34293465 54.64711803 27.91432899 45.93425709 C28.03636161 45.26664671 28.15839422 44.59903633 28.28412479 43.91119534 C29.5532529 36.50340928 31.05403411 27.32623431 27.8789286 20.33904225 C23.4785735 14.71966986 14.93634251 13.11228417 8.1445536 12.1241985 C3.81562424 11.69864273 -0.51332774 11.37922247 -4.8554464 11.1241985 C-4.54762144 9.47748437 -4.23405406 7.83184273 -3.9179464 6.1866985 C-3.74392296 5.27017506 -3.56989952 4.35365162 -3.39060265 3.40935475 C-2.63345434 0.17627622 -2.63345434 0.17627622 0 0 Z " fill="#FCFCFC" transform="translate(168.8554463982582,71.8758015036583)"/>
</svg>
